<svg aria-hidden="true" style="width:0;height:0;position:absolute;overflow:hidden" xmlns="http://www.w3.org/2000/svg"><defs><symbol id="icon-Arrow-1" viewBox="0 0 47 32"><path d="M.625 14.492a2.134 2.134 0 0 0 0 3.017l13.576 13.576a2.134 2.134 0 0 0 3.017-3.017L5.15 16 17.218 3.932A2.134 2.134 0 0 0 14.201.915L.625 14.491zm46.308-.625h-44.8v4.267h44.8v-4.267z"/></symbol><symbol id="icon-Arrow-2" viewBox="0 0 47 32"><path d="M46.308 17.508a2.134 2.134 0 0 0 0-3.017L32.732.915a2.134 2.134 0 0 0-3.017 3.017L41.783 16 29.715 28.068a2.134 2.134 0 0 0 3.017 3.017l13.576-13.576zM0 18.133h44.8v-4.267H0v4.267z"/></symbol></defs></svg>