<svg aria-hidden="true" style="position: absolute; width: 0; height: 0; overflow: hidden;" version="1.1" xmlns="http://www.w3.org/2000/svg" xmlns:xlink="http://www.w3.org/1999/xlink">
<defs>
<symbol id="icon-Arrow-1" viewBox="0 0 47 32">
<path  d="M0.625 14.492c-0.833 0.833-0.833 2.184 0 3.017l13.576 13.576c0.833 0.833 2.184 0.833 3.017 0s0.833-2.184 0-3.017l-12.068-12.068 12.068-12.068c0.833-0.833 0.833-2.184 0-3.017s-2.184-0.833-3.017 0l-13.576 13.576zM46.933 13.867h-44.8v4.267h44.8v-4.267z"></path>
</symbol>
<symbol id="icon-Arrow-2" viewBox="0 0 47 32">
<path  d="M46.308 17.508c0.833-0.833 0.833-2.184 0-3.017l-13.576-13.576c-0.833-0.833-2.184-0.833-3.017 0s-0.833 2.184 0 3.017l12.068 12.068-12.068 12.068c-0.833 0.833-0.833 2.184 0 3.017s2.184 0.833 3.017 0l13.576-13.576zM0 18.133h44.8v-4.267h-44.8v4.267z"></path>
</symbol>

</defs>
</svg>
